<?xml version="1.0" encoding="utf-8"?>
<!-- Generator: Adobe Illustrator 22.0.0, SVG Export Plug-In . SVG Version: 6.00 Build 0)  -->
<svg version="1.1" id="Layer_1" xmlns="http://www.w3.org/2000/svg" xmlns:xlink="http://www.w3.org/1999/xlink" x="0px" y="0px"
	 viewBox="0 0 1970 493" style="enable-background:new 0 0 1970 493;" xml:space="preserve">
<style type="text/css">
	.st0{fill:url(#SVGID_1_);}
	.st1{fill:url(#SVGID_2_);}
	.st2{fill:url(#SVGID_3_);}
	.st3{fill:url(#SVGID_4_);}
	.st4{fill:#17499E;}
</style>
<g>
	<g>
		
			<linearGradient id="SVGID_1_" gradientUnits="userSpaceOnUse" x1="427.4492" y1="625.1443" x2="402.3189" y2="983.6696" gradientTransform="matrix(0.7071 0.7071 -0.7071 0.7071 468.7281 -763.4432)">
			<stop  offset="0" style="stop-color:#85D4F6"/>
			<stop  offset="1" style="stop-color:#17499E"/>
		</linearGradient>
		<path class="st0" d="M272.5,95.6h7.2c49,0,88.8-39.4,88.8-88.1h-96C139.8,7.5,32.3,114.2,32.3,245.8H121
			C121,162.8,188.8,95.6,272.5,95.6z"/>
		
			<linearGradient id="SVGID_2_" gradientUnits="userSpaceOnUse" x1="830.0244" y1="960.0916" x2="389.7547" y2="1030.6688" gradientTransform="matrix(0.7071 0.7071 -0.7071 0.7071 468.7281 -763.4432)">
			<stop  offset="0.6205" style="stop-color:#17499E"/>
			<stop  offset="0.6496" style="stop-color:#2558A7"/>
			<stop  offset="0.7178" style="stop-color:#4276BB"/>
			<stop  offset="0.7841" style="stop-color:#5994CE"/>
			<stop  offset="0.847" style="stop-color:#6BADDF"/>
			<stop  offset="0.9056" style="stop-color:#79C1EB"/>
			<stop  offset="0.9583" style="stop-color:#82CEF3"/>
			<stop  offset="1" style="stop-color:#85D4F6"/>
		</linearGradient>
		<path class="st1" d="M361.9,397.1l-89.5,0.1c-83.6,0-151.4-67.8-151.4-151.4H32.3C32.3,378.5,139.8,486,272.5,486H451
			C451,436.9,411.1,397,361.9,397.1z"/>
		
			<linearGradient id="SVGID_3_" gradientUnits="userSpaceOnUse" x1="1052.2821" y1="806.3655" x2="953.6984" y2="994.5706" gradientTransform="matrix(0 1 -1 0 1183 -787)">
			<stop  offset="0" style="stop-color:#85D4F6"/>
			<stop  offset="7.658964e-02" style="stop-color:#76BDE9"/>
			<stop  offset="0.2562" style="stop-color:#5994CE"/>
			<stop  offset="0.4311" style="stop-color:#4377BB"/>
			<stop  offset="0.5968" style="stop-color:#3063AE"/>
			<stop  offset="0.7512" style="stop-color:#2255A5"/>
			<stop  offset="0.8901" style="stop-color:#194CA0"/>
			<stop  offset="1" style="stop-color:#17499E"/>
		</linearGradient>
		<path class="st2" d="M272.5,187c32.5,0,58.8,26.3,58.8,58.8h57.1c0-64-51.9-115.9-115.9-115.9c-64,0-115.9,51.9-115.9,115.9h57.1
			C213.6,213.3,240,187,272.5,187z"/>
		
			<linearGradient id="SVGID_4_" gradientUnits="userSpaceOnUse" x1="1020.952" y1="816.6188" x2="1117.295" y2="1007.0647" gradientTransform="matrix(0 1 -1 0 1183 -787)">
			<stop  offset="0" style="stop-color:#17499E"/>
			<stop  offset="1" style="stop-color:#85D4F6"/>
		</linearGradient>
		<path class="st3" d="M388.4,245.8h-57.1c0,32.5-26.3,58.8-58.8,58.8c-32.5,0-58.8-26.3-58.8-58.8h-57.1
			c0,64,51.9,115.9,115.9,115.9C336.5,361.8,388.4,309.8,388.4,245.8z"/>
	</g>
</g>
<g>
	<path class="st4" d="M500.6,456.6c-20.4-17.1-30.6-43-30.6-77.8c0-33.1,9.3-57.8,28-74.4c18.7-16.5,46.9-24.8,84.7-24.8h79.3
		c8.9,0,16.3,6.8,17.1,15.7l1.6,18.6c0.9,10-7,18.6-17.1,18.6H583c-17.2,0-30,3.8-38.5,11.4c-8.5,7.6-12.7,19.3-12.7,34.9
		c0,17,5.6,29.5,16.9,37.7c11.3,8.2,28.4,12.2,51.4,12.2c25.1,0,43.8-2.7,56.2-8c0.1-0.1,0.2-0.1,0.4-0.2c10.2-4.5,22,1.8,23.6,12.9
		l0.3,2.4c0.7,4.6-0.6,9.3-3.5,13c-4.9,6.2-10.5,11.5-17,15.9c-8.5,5.8-18.3,10.1-29.5,13c-11.2,2.9-23.7,4.3-37.7,4.3
		C551.8,482.2,521,473.7,500.6,456.6z M674.8,265.5c0-21.9-5.9-38.9-17.5-51c-11.7-12.1-28.3-18.2-49.7-18.2
		c-13.3,0-26.4,2-39.1,6.1c-9.1,2.9-17.5,6.7-25.2,11.2c-5.7,3.4-12.9,3.1-18.4-0.7l-21.3-14.6c-9.4-6.4-10.1-20.1-1.2-27.3
		c9.8-8,21.2-14.6,34.2-20c20.7-8.5,43.7-12.7,69.1-12.7c27.7,0,51.4,4.9,71.2,14.7c19.7,9.8,34.8,23.9,45.1,42.5
		c10.3,18.6,15.5,40.9,15.5,67.1v197.7c0,9.5-7.7,17.1-17.1,17.1h-28.2c-9.5,0-17.1-7.7-17.1-17.1V265.5z"/>
	<path class="st4" d="M791.5,143.1h91.4c16.4,0,29.6,13.3,29.6,29.6v0c0,16.4-13.3,29.6-29.6,29.6h-91.4
		c-16.4,0-29.6-13.3-29.6-29.6v0C761.8,156.4,775.1,143.1,791.5,143.1z M815.1,456.6c-12.6-14.9-18.8-37-18.8-66.2V75.5
		c0-16.4,13.3-29.6,29.6-29.6h6.4c16.4,0,29.6,13.3,29.6,29.6v315.5c0,8.2,1.6,14.4,4.8,18.8c3.2,4.4,7.9,6.6,14.2,6.6h1.9
		c16.4,0,29.6,13.3,29.6,29.6v3.2c0,16.4-13.3,29.6-29.6,29.6h-8.4C847.5,479,827.7,471.5,815.1,456.6z"/>
	<path class="st4" d="M967.7,456.6c-20.4-17.1-30.6-43-30.6-77.8c0-33.1,9.3-57.8,28-74.4c18.7-16.5,46.9-24.8,84.7-24.8h79.3
		c8.9,0,16.3,6.8,17.1,15.7l1.6,18.6c0.9,10-7,18.6-17.1,18.6h-80.5c-17.2,0-30,3.8-38.5,11.4c-8.5,7.6-12.7,19.3-12.7,34.9
		c0,17,5.6,29.5,16.9,37.7c11.3,8.2,28.4,12.2,51.4,12.2c25.1,0,43.8-2.7,56.2-8c0.1-0.1,0.2-0.1,0.4-0.2c10.2-4.5,22,1.8,23.6,12.9
		l0.3,2.4c0.7,4.6-0.6,9.3-3.5,13c-4.9,6.2-10.5,11.5-17,15.9c-8.5,5.8-18.3,10.1-29.5,13c-11.2,2.9-23.7,4.3-37.7,4.3
		C1018.9,482.2,988.1,473.7,967.7,456.6z M1141.9,265.5c0-21.9-5.9-38.9-17.5-51c-11.7-12.1-28.3-18.2-49.7-18.2
		c-13.3,0-26.4,2-39.1,6.1c-9.1,2.9-17.5,6.7-25.2,11.2c-5.7,3.4-12.9,3.1-18.4-0.7l-21.3-14.6c-9.4-6.4-10.1-20.1-1.2-27.3
		c9.8-8,21.2-14.6,34.2-20c20.7-8.5,43.7-12.7,69.1-12.7c27.7,0,51.4,4.9,71.2,14.7c19.7,9.8,34.8,23.9,45.1,42.5
		c10.3,18.6,15.5,40.9,15.5,67.1v197.7c0,9.5-7.7,17.1-17.1,17.1H1159c-9.5,0-17.1-7.7-17.1-17.1V265.5z"/>
	<path class="st4" d="M1320.4,391.1c0,8.2,1.8,14.4,5.3,18.8c3.5,4.4,8.5,6.6,15,6.6l0,0c17.1,0,30.9,13.8,30.9,30.9v0.6
		c0,17.1-13.8,30.9-30.9,30.9h-7.7c-24.9,0-44.2-7.7-57.8-23.2c-13.6-15.5-20.4-37.2-20.4-65.4V40.1c0-17.1,13.8-30.9,30.9-30.9h3.9
		c17.1,0,30.9,13.8,30.9,30.9V391.1z"/>
	<path class="st4" d="M1450,465.1c-20.6-11.4-36.3-28-47.2-49.7c-10.8-21.8-16.3-48-16.3-78.7v-54.4c0-30.3,5.4-56.2,16.3-77.8
		c10.8-21.6,26.6-38,47.2-49.3c20.6-11.3,45.4-16.9,74.4-16.9c29,0,53.8,5.6,74.4,16.9c20.6,11.3,36.3,27.7,47.2,49.3
		c10.8,21.6,16.3,47.5,16.3,77.8v55.4c0,30.5-5.4,56.5-16.3,78.1c-10.8,21.6-26.6,38-47.2,49.4c-20.6,11.4-45.4,17.1-74.4,17.1
		C1495.4,482.2,1470.6,476.5,1450,465.1z M1577.7,398.1c12.6-14.4,18.8-34.6,18.8-60.5v-55.4c0-26-6.3-46-18.8-60.2
		c-12.6-14.2-30.3-21.3-53.3-21.3c-23,0-40.7,7.1-53.3,21.3c-12.6,14.2-18.8,34.2-18.8,60.2v55.4c0,26,6.3,46.2,18.8,60.5
		c12.6,14.4,30.3,21.6,53.3,21.6C1547.3,419.7,1565.1,412.5,1577.7,398.1z"/>
	<path class="st4" d="M1803.4,482.2c-5.3,0-10.5-1.3-15.2-3.8c-5.4-2.8-13.8-7.3-25.2-13.3c-21.6-11.4-38-27.9-49.4-49.6
		c-11.4-21.7-17.1-47.9-17.1-78.6v-55.1c0-30.3,5.7-56.1,17.1-77.6c11.4-21.5,27.9-37.8,49.4-49.1c21.6-11.3,47.6-16.9,78.1-16.9
		c17.4,0,33.8,2.1,49.1,6.3c15.3,4.2,29.1,10.3,41.4,18.2c0.3,0.2,0.7,0.4,1,0.7c17.8,11.8,19.6,37.2,3.7,51.5l0,0
		c-11.2,10.1-27.8,11.1-40.3,2.6c-4.5-3.1-9.3-5.8-14.4-8.1c-12.7-5.8-25.9-8.7-39.6-8.7c-25.3,0-45,7.1-58.9,21.3
		c-14,14.2-20.9,34.1-20.9,59.9V337c0,26.4,6.9,46.8,20.8,61.2c13.8,14.4,33.5,21.6,59.1,21.6c14,0,27.3-3.1,39.9-9.3
		c4.7-2.3,9.3-5,13.5-8.1c12.8-9.2,30.4-7.6,41.7,3.3l0.6,0.6c14.9,14.4,12.9,38.9-4.2,50.4c-0.8,0.5-1.6,1-2.4,1.6
		c-12.2,7.8-26,13.8-41.4,17.9c-15.4,4.1-31.6,6.1-48.8,6.1H1803.4z"/>
</g>
</svg>
